<?xml version="1.0" standalone="no"?>
<!DOCTYPE svg PUBLIC "-//W3C//DTD SVG 20010904//EN"
 "http://www.w3.org/TR/2001/REC-SVG-20010904/DTD/svg10.dtd">
<svg version="1.0" xmlns="http://www.w3.org/2000/svg"
 width="512.000000pt" height="512.000000pt" viewBox="0 0 512.000000 512.000000"
 preserveAspectRatio="xMidYMid meet">
<metadata>
Created by potrace 1.14, written by Peter Selinger 2001-2017
</metadata>
<g transform="translate(0.000000,512.000000) scale(0.100000,-0.100000)"
fill="#000000" stroke="none">
<path d="M2370 5111 c-1113 -94 -2029 -868 -2291 -1936 -53 -219 -72 -376 -72
-615 0 -239 19 -396 72 -615 225 -916 950 -1641 1866 -1866 219 -53 376 -72
615 -72 239 0 396 19 615 72 916 225 1641 950 1866 1866 53 219 72 376 72 615
0 239 -19 396 -72 615 -225 916 -950 1641 -1866 1866 -247 60 -576 89 -805 70z
m605 -1461 c516 -21 961 -65 1477 -146 l107 -16 6 -39 7 -38 56 -3 56 -3 78
-310 c42 -170 78 -313 78 -317 0 -5 -35 -8 -78 -8 l-77 0 4 -154 c6 -261 -27
-541 -99 -842 l-31 -132 -127 -50 c-239 -95 -476 -141 -662 -128 -198 14 -423
76 -620 173 -104 50 -124 64 -205 147 -72 73 -108 122 -180 241 -49 83 -105
167 -123 187 -31 34 -40 38 -82 38 -42 0 -51 -4 -82 -38 -18 -20 -74 -104
-123 -187 -115 -191 -225 -308 -352 -373 -181 -93 -412 -163 -609 -184 -208
-21 -447 20 -705 123 l-127 51 -41 136 c-102 338 -139 592 -126 855 l6 137
-60 0 c-34 0 -61 3 -61 8 0 4 36 147 78 317 l78 310 56 3 c56 3 56 3 65 39 6
28 15 38 36 44 58 15 613 89 817 108 551 53 1089 70 1565 51z"/>
<path d="M2189 3464 c-26 -8 -172 -406 -250 -679 -91 -322 -148 -638 -165
-928 l-7 -108 54 21 c170 67 248 141 380 363 51 87 114 178 139 204 129 131
311 131 440 0 25 -26 88 -117 139 -204 150 -252 224 -312 500 -407 323 -112
548 -109 871 11 52 19 99 38 103 42 12 12 46 162 72 326 51 313 51 601 0 910
-36 216 -58 297 -81 306 -61 24 -724 101 -1079 125 -211 14 -1083 28 -1116 18z"/>
<path d="M1420 3414 c-8 -1 -45 -6 -82 -9 -49 -5 -67 -11 -71 -23 -3 -9 -38
-96 -77 -192 -82 -201 -164 -477 -209 -700 -45 -231 -57 -331 -86 -717 l-4
-61 77 -20 c168 -44 160 -43 166 -13 3 14 8 51 11 81 55 501 187 1103 335
1536 22 65 40 119 40 121 0 4 -79 2 -100 -3z"/>
<path d="M860 3344 c-80 -12 -146 -23 -146 -23 -4 -2 -66 -238 -83 -316 -67
-305 -69 -628 -6 -902 23 -99 78 -284 83 -279 2 3 8 58 13 123 35 465 142 941
298 1327 l40 96 -27 -1 c-15 -1 -92 -12 -172 -25z"/>
</g>
</svg>
